<svg width="512" height="512" viewBox="0 0 512 512" fill="none" xmlns="http://www.w3.org/2000/svg">
  <rect width="512" height="512" rx="128" fill="#000000"/>
  <path d="M256 128C211.817 128 176 163.817 176 208C176 236.279 191.883 260.684 215.333 273.333V288C215.333 302.728 227.272 314.667 242 314.667H270C284.728 314.667 296.667 302.728 296.667 288V273.333C320.117 260.684 336 236.279 336 208C336 163.817 300.183 128 256 128ZM229.333 346.667C229.333 354.402 235.598 360.667 243.333 360.667H268.667C276.402 360.667 282.667 354.402 282.667 346.667V328H229.333V346.667ZM256 160C282.51 160 304 181.49 304 208C304 234.51 282.51 256 256 256C229.49 256 208 234.51 208 208C208 181.49 229.49 160 256 160Z" fill="white"/>
  <circle cx="256" cy="208" r="24" fill="#000000"/>
</svg>
